<?xml version="1.0" encoding="utf-8"?>
<!-- Generator: Adobe Illustrator 17.1.0, SVG Export Plug-In . SVG Version: 6.00 Build 0)  -->
<!DOCTYPE svg PUBLIC "-//W3C//DTD SVG 1.1//EN" "http://www.w3.org/Graphics/SVG/1.1/DTD/svg11.dtd">
<svg version="1.1" xmlns="http://www.w3.org/2000/svg" xmlns:xlink="http://www.w3.org/1999/xlink" x="0px" y="0px"
	 viewBox="0 0 1112 612.6" enable-background="new 0 0 1112 612.6" xml:space="preserve">
<g id="Background" display="none">
	<rect y="0" display="inline" opacity="0.75" fill="#5B6769" width="1112" height="612.6"/>
</g>
<g id="Outline" display="none">
	<g display="inline" opacity="0.1">
		<defs>
			<path id="SVGID_1_" opacity="0.1" d="M571.2,658.4c98.5-0.4,105.1-83,105.1-83c5.2-45.2-11.7-65.7-25.6-89.6
				c-4.7-8.4-13.7-25.9-5.2-46.3c8.9-21.3,8.9-35.5,8.9-35.5c-3.1-58.1-74.1-55.2-74.2-55.2l0-188.6c9-4.7,10.7-12.1,5.9-25
				c-7.6-20.6,1.8-48.7,4.2-61.4c2.8-14.8-21.4-15.7-21.4-15.7h-11.7c0,0-24.2,0.8-21.4,15.7c2.4,12.7,11.9,40.8,4.2,61.4
				c-4.8,12.9-3.1,20.3,5.9,25l0,188.6c-0.2,0.1-71.1-2.9-74.2,55.2c0,0,0,14.2,8.9,35.5c8.5,20.5-0.5,38-5.2,46.3
				c-14,23.9-30.8,44.4-25.6,89.6c0,0,6.6,82.7,105.1,83H571.2z"/>
		</defs>
		<use xlink:href="#SVGID_1_"  overflow="visible"/>
		<clipPath id="SVGID_2_">
			<use xlink:href="#SVGID_1_"  overflow="visible"/>
		</clipPath>
	</g>
</g>
<g id="Content">
	<g>
		<path fill="#E6BD2E" d="M537.9,384.4v-22.8h-5.4v-3.3h14.3v3.3h-5.4v22.8H537.9z"/>
		<path fill="#E6BD2E" d="M563,384.4v-10.5h-8.6v10.5h-3.4v-26.1h3.4v12.4h8.6v-12.4h3.4v26.1H563z"/>
	</g>
	<g>
		<path fill="#E6BD2E" d="M510,384.5v-16.4h-28.5l28.5-60.2h10.2v50.5h9v9.7h-9v16.4H510z M510.7,326.8h-0.2c-0.3,0.7-1.9,4.6-3,6.9
			l-6.9,15.1c-1.8,3.8-3.5,7.3-4.8,10v0.2h14.9V326.8z"/>
	</g>
	<g>
		<path fill="#2C2D2C" d="M576.6,372.1l-0.7-2.8H572l-0.7,2.8h-1.9l3.6-13.8h1.9l3.6,13.8H576.6z M574.3,362.4
			c-0.1-0.5-0.3-1.4-0.3-1.4h0c0,0-0.2,0.8-0.3,1.4l-1.3,5.2h3.2L574.3,362.4z"/>
		<path fill="#2C2D2C" d="M587.2,372.1l-5-10.1h0c0,0,0.1,0.7,0.1,1.4v8.8h-1.7v-13.8h1.7l4.5,8.9c0.2,0.5,0.5,1.2,0.5,1.2h0
			c0-0.1,0-0.9,0-1.3v-8.7h1.7v13.8H587.2z"/>
		<path fill="#2C2D2C" d="M598.8,372.1l-5-10.1h0c0,0,0.1,0.7,0.1,1.4v8.8h-1.7v-13.8h1.7l4.5,8.9c0.2,0.5,0.5,1.2,0.5,1.2h0
			c0-0.1,0-0.9,0-1.3v-8.7h1.7v13.8H598.8z"/>
		<path fill="#2C2D2C" d="M609.9,358.3h1.8v9.2c0,3.2-1.6,4.8-4,4.8c-2.4,0-4.1-1.5-4.1-4.8v-9.2h1.8v9c0,1.8,0.5,3.2,2.2,3.2
			c1.8,0,2.2-1.4,2.2-3.2V358.3z"/>
		<path fill="#2C2D2C" d="M620.8,372.1l-0.7-2.8h-3.9l-0.7,2.8h-1.9l3.6-13.8h1.9l3.6,13.8H620.8z M618.5,362.4
			c-0.1-0.5-0.3-1.4-0.3-1.4h0c0,0-0.2,0.8-0.3,1.4l-1.3,5.2h3.2L618.5,362.4z"/>
		<path fill="#2C2D2C" d="M624.7,372.1v-13.8h1.8v12h4.7v1.7H624.7z"/>
	</g>
	<path fill="#F8F8F8" d="M541.8,329.6v-10.3c0-0.6,0-1.3,0-1.3h0c0,0-0.3,0.6-0.6,1.1l-3,5.5H538l-3-5.5c-0.3-0.5-0.6-1.2-0.6-1.2h0
		c0,0,0,0.8,0,1.4v10.3h-1.9v-15.1h2.2l2.8,5.3c0.3,0.5,0.6,1.2,0.6,1.2h0c0,0,0.4-0.7,0.6-1.2l2.8-5.3h2.2v15.1H541.8z"/>
	<path fill="#F8F8F8" d="M553.9,329.6l-0.8-3.1h-4.3l-0.8,3.1H546l3.9-15.1h2.1l3.9,15.1H553.9z M551.3,319
		c-0.2-0.6-0.3-1.5-0.3-1.5h0c0,0-0.2,0.9-0.3,1.5l-1.4,5.7h3.5L551.3,319z"/>
	<path fill="#F8F8F8" d="M564.9,329.6l-2.1-4.9c-0.3,0.1-0.6,0.1-0.9,0.1h-1.6v4.8h-2v-15.1h3.9c3.4,0,4.9,2.3,4.9,5.1
		c0,1.9-0.8,3.6-2.4,4.5l2.4,5.5H564.9z M561.9,322.8c2.1,0,3.1-1.3,3.1-3.2c0-2-1-3.2-3.1-3.2h-1.7v6.5H561.9z"/>
	<path fill="#F8F8F8" d="M577.1,331.7c-0.8-0.7-1.2-1.4-1.6-2.1c-0.4,0.1-0.8,0.2-1.3,0.2c-3.7,0-5-3.5-5-7.8c0-4.3,1.3-7.8,5-7.8
		c3.7,0,5,3.5,5,7.8c0,3.2-0.8,5.9-2.6,7.1c0.3,0.5,0.7,1.1,1.3,1.6L577.1,331.7z M574.7,324.8c0.6,0.8,0.9,1.6,1.2,2.4
		c0,0,0,0,0.1,0c0.9-1,1.3-2.9,1.3-5.2c0-3.5-0.9-5.9-3.1-5.9c-2.1,0-3,2.3-3,5.9c0,3.6,0.9,5.9,3,5.9c0.2,0,0.4,0,0.6-0.1
		c-0.3-0.7-0.6-1.4-1.1-2.3L574.7,324.8z"/>
	<path fill="#F8F8F8" d="M588.8,314.5h2v10.1c0,3.6-1.8,5.3-4.4,5.3c-2.6,0-4.5-1.7-4.5-5.3v-10.1h2v9.9c0,2,0.6,3.5,2.5,3.5
		c1.9,0,2.4-1.6,2.4-3.6V314.5z"/>
	<path fill="#F8F8F8" d="M594.3,329.6v-15.1h7.7v1.9h-5.7v5.2h4.8v1.9h-4.8v4.2h5.7v1.9H594.3z"/>
	<path fill="#F8F8F8" d="M607.2,329.6v-13.2h-3.1v-1.9h8.3v1.9h-3.1v13.2H607.2z"/>
	<path fill="#F8F8F8" d="M616.1,329.6v-13.2H613v-1.9h8.3v1.9h-3.1v13.2H616.1z"/>
	<path fill="#F8F8F8" d="M623.6,329.6v-15.1h7.7v1.9h-5.7v5.2h4.8v1.9h-4.8v4.2h5.7v1.9H623.6z"/>
	<path fill="#464B4D" d="M543.8,351.2v-12.5c0-0.8,0-1.6,0-1.6h-0.1c0,0-0.3,0.8-0.7,1.4l-3.7,6.7h-0.2l-3.6-6.6
		c-0.3-0.6-0.7-1.4-0.7-1.4h-0.1c0,0,0,0.9,0,1.7v12.5h-2.3v-18.4h2.6l3.4,6.4c0.3,0.6,0.7,1.5,0.7,1.5h0.1c0,0,0.4-0.9,0.8-1.5
		l3.4-6.4h2.6v18.4H543.8z"/>
	<path fill="#464B4D" d="M550.5,351.2v-18.4h2.4v18.4H550.5z"/>
	<path fill="#464B4D" d="M567.6,347.6c-0.9,2.3-2.6,3.9-5.3,3.9c-4.6,0-6.2-4.4-6.2-9.4s1.5-9.4,6.2-9.4c2.9,0,4.5,1.7,5.4,4.2
		l-2.1,1.2c-0.6-1.9-1.6-3-3.3-3c-2.7,0-3.8,3.1-3.8,7.1s1,7.1,3.8,7.1c1.6,0,2.6-1.1,3.2-2.8L567.6,347.6z"/>
	<path fill="#464B4D" d="M579.1,351.2v-7.4H573v7.4h-2.4v-18.4h2.4v8.7h6.1v-8.7h2.4v18.4H579.1z"/>
	<path fill="#464B4D" d="M585.8,351.2v-18.4h2.4v18.4H585.8z"/>
	<path fill="#464B4D" d="M598.3,344v-2.3h5.3c0,5.5-1.4,9.8-5.9,9.8c-4.6,0-6.2-4.4-6.2-9.4c0-5,1.5-9.4,6.2-9.4
		c2.9,0,4.6,1.7,5.4,4.2l-2.2,1.2c-0.5-1.9-1.6-3.1-3.3-3.1c-2.7,0-3.7,3.1-3.7,7.1c0,4,1,7.1,3.7,7.1c2.4,0,3.3-2.4,3.3-5.1H598.3z
		"/>
	<path fill="#464B4D" d="M614.9,351.2l-0.9-3.8h-5.2l-0.9,3.8h-2.5l4.8-18.4h2.6l4.8,18.4H614.9z M611.8,338.4
		c-0.2-0.7-0.4-1.8-0.4-1.8h-0.1c0,0-0.2,1.1-0.4,1.8l-1.7,6.9h4.2L611.8,338.4z"/>
	<path fill="#464B4D" d="M629,351.2l-6.7-13.5h-0.1c0,0,0.1,0.9,0.1,1.8v11.7h-2.2v-18.4h2.3l6,11.8c0.3,0.6,0.7,1.6,0.7,1.6h0.1
		c0-0.1-0.1-1.2-0.1-1.8v-11.6h2.2v18.4H629z"/>
	<g>
		<g>
			<path fill="#E6BD2E" d="M487.8,573.3c0-9.8,0-19.6,0-29.4c5.8-2,8.7-2.7,14.5-3.8c0,2,0,2.9,0,4.9c-4.3,0.5-6.5,0.9-10.8,1.8
				c0,4.9,0,7.4,0,12.3c3.6,0.2,5.5,0.3,9.1,0.7c0,1.9,0,2.9,0,4.8c-3.7-0.6-5.5-0.9-9.1-1.4c0,4.6,0,6.9,0,11.6
				C490.1,574.1,489.3,573.9,487.8,573.3z"/>
			<path fill="#E6BD2E" d="M507.4,580.7c0-13.8,0-27.6,0-41.5c5.9-0.9,8.9-1.2,14.8-1.8c0,2.4,0,3.6,0,6.1c-4.4,0.2-6.6,0.3-11,0.7
				c0,6,0,9,0,15c3.7,0.4,5.6,0.5,9.4,0.9c0,2.4,0,3.6,0,6c-3.8-0.5-5.6-0.8-9.4-1.4c0,4.8,0,7.2,0,12c4.4,1.3,6.6,1.9,11,2.9
				c0,2.4,0,3.6,0,6C516.3,583.9,513.3,582.8,507.4,580.7z"/>
			<path fill="#E6BD2E" d="M529.7,574.7c1,4.4,3.2,7.5,5.9,7.8c3.2,0.3,5.3-3.4,5-7.6c-0.8-10-13.4-13.9-13.2-25.7
				c0.1-7.3,3.2-13.3,8.1-13.9c4.5-0.5,7.2,3.6,8.6,9.9c-1.4,1.5-2.1,2.3-3.5,3.8c-0.8-4.2-2.3-7.4-5.1-7.2c-2.6,0.2-4.3,3.4-4.1,7
				c0.4,10.6,13.5,13.5,13.2,26c-0.2,8.6-3.5,14.7-8.9,14.1c-4.4-0.5-7.8-5.2-9.3-11C527.7,576.7,528.4,576.1,529.7,574.7z"/>
			<path fill="#E6BD2E" d="M552.4,589.5c0-15.9,0-31.9,0-47.8c-2.5,0.1-3.7,0.1-6.2,0.2c0-2.7,0-4.1,0-6.8c6.5-0.4,9.8-0.5,16.3-0.4
				c0,2.7,0,4.1,0,6.9c-2.5,0-3.7,0-6.1,0c0,16,0,32,0,48C554.8,589.5,554,589.5,552.4,589.5z"/>
			<path fill="#E6BD2E" d="M567.2,589.5c0-18.2,0-36.5,0-54.7c1.6,0.1,2.4,0.1,3.9,0.2c0,18.1,0,36.3,0,54.4
				C569.6,589.4,568.8,589.4,567.2,589.5z"/>
			<path fill="#E6BD2E" d="M582.8,588.4c-2.7-17.7-5.2-35.5-7.8-53.3c1.6,0.1,2.5,0.2,4.1,0.3c1.7,12.3,3.3,24.5,5.1,36.8
				c0.3,2.5,0.7,5.4,0.7,5.4c0,0,0.1,0,0.1,0c0,0,0.3-2.9,0.6-5.5c1.7-11.9,3.3-23.7,5.1-35.6c1.6,0.2,2.5,0.2,4.1,0.4
				c-2.7,16.9-5.2,33.9-7.7,50.9C585.3,588.2,584.5,588.3,582.8,588.4z"/>
			<path fill="#E6BD2E" d="M610.5,581.5c-0.6-3.2-0.9-4.9-1.5-8.3c-3.3,0.8-5,1.3-8.3,2c-0.6,4-0.9,6-1.5,10
				c-1.6,0.5-2.5,0.7-4.1,1.1c2.5-16.1,4.9-32.3,7.7-48.4c1.7,0.2,2.5,0.3,4.2,0.5c2.4,13.9,4.8,27.8,7.6,41.6
				C612.9,580.6,612.1,580.9,610.5,581.5z M605.5,551.7c-0.3-1.7-0.6-4.5-0.6-4.5c0,0-0.1,0-0.1,0c0,0-0.3,2.7-0.6,4.5
				c-1.1,6.9-1.6,10.5-2.7,17.8c2.7-0.5,4.1-0.7,6.7-1.3C607.2,561.8,606.6,558.5,605.5,551.7z"/>
			<path fill="#E6BD2E" d="M618.8,578.4c0-12.7,0-25.4,0-38.2c1.5,0.3,2.3,0.5,3.8,0.8c0,10.5,0,20.9,0,31.4c4-1.2,5.9-1.8,9.8-2.8
				c0,1.5,0,2.2,0,3.7C627,575.2,624.3,576.3,618.8,578.4z"/>
		</g>
	</g>
	<g>
		<g>
			<path fill="#C16528" d="M500.3,535.8c-2-12-3.9-24.1-5.9-36.1c-0.4-2.2-0.7-4.7-0.7-4.7c-0.1,0-0.1,0-0.2,0c0,0-0.7,2.5-1.5,4.4
				c-3.5,8.5-5.1,12.8-8.1,21.4c-0.3,0.1-0.4,0.1-0.6,0.1c-6-6.8-9.1-10.1-15.4-16.6c-1.4-1.5-3.3-3.6-3.3-3.6c-0.1,0-0.1,0-0.2,0
				c0,0,0.7,2.6,1.2,4.7c2.8,11.9,5.6,23.8,8.4,35.6c-2.7,0.6-4,1-6.7,1.7c-4.5-17.4-8.9-34.8-13.4-52.3c3.5-0.9,5.2-1.3,8.7-2.1
				c6.3,6.3,9.3,9.5,15.2,16c1.3,1.5,3.2,3.8,3.2,3.8c0.1,0,0.1,0,0.2,0c0,0,0.9-2.9,1.6-4.8c2.9-8.2,4.5-12.3,7.9-20.5
				c3.6-0.6,5.3-0.9,8.9-1.4c2.6,17.8,5.1,35.6,7.7,53.4C504.4,535.2,503,535.4,500.3,535.8z"/>
			<path fill="#C16528" d="M541.9,477.4c3.3-0.1,5-0.2,8.3-0.3c0.3,12,0.6,24,0.8,36c0.7,9.8-5.4,18.8-15.5,19.4
				c-10.1,0.7-17.5-7.4-18.1-17.3c-1.3-11.9-2.6-23.8-3.9-35.7c3.3-0.4,4.9-0.5,8.2-0.8c1.1,11.7,2.1,23.4,3.2,35.2
				c0.6,7.1,3.2,12.3,10.1,11.9c7.1-0.5,8.7-6,8.4-13.2C542.9,500.9,542.4,489.2,541.9,477.4z"/>
			<path fill="#C16528" d="M566,517.6c1.8,4.6,5.9,7.6,10.9,7.8c6,0.3,10.1-3.5,9.9-7.5c-0.7-12.4-25-11.3-25.1-27.4
				c0-7.9,6.8-14.2,17.1-13.8c9.5,0.4,14.8,5.4,17.1,12c-3,1.2-4.5,1.9-7.5,3.1c-1.3-4.4-4.2-8-10-8.3c-5.4-0.2-9,3.3-8.7,6.8
				c1.3,12,26,11,24.5,27.9c-0.8,8.7-7.6,14.3-17.6,13.9c-8.1-0.4-14.2-4.6-17-10.6C562.1,519.9,563.4,519.1,566,517.6z"/>
			<path fill="#C16528" d="M602.3,533.4c2-17.9,4.1-35.7,6.1-53.6c3.3,0.4,4.9,0.6,8.2,1c-2.4,17.8-4.8,35.7-7.1,53.5
				C606.6,533.9,605.2,533.7,602.3,533.4z"/>
			<path fill="#C16528" d="M655.3,532.4c-4.3,5.9-10.3,9-18.2,7.4c-14.1-2.8-15.4-19.4-13.6-30.7c2-12.5,10-27,25.1-23.6
				c9.4,2.1,14,8.3,15,16.1c-3.1,0.6-4.6,1-7.7,1.7c-0.5-5.7-3.1-9.9-8.7-11.1c-9-1.9-14,6.6-16.1,18.2c-2.1,11.6-0.7,21.1,7.4,22.8
				c4.8,1,8.6-1.4,11.4-5.9C652.1,529.3,653.2,530.4,655.3,532.4z"/>
		</g>
	</g>
	<g>
		<g>
			<path fill="#F8F8F8" d="M472.8,444.8c4.9-17.4,9.8-34.8,14.8-52.2c10.9,0,16.4,0,27.3,0c-0.4,2.4-0.7,3.7-1.1,6.2
				c-8.3-0.1-12.4-0.2-20.6-0.4c-1.9,7.2-2.9,11-5,19.4c7.3,0.8,11,1.1,18.4,1.6c-0.6,2.9-0.8,4.4-1.4,7.4
				c-7.6-0.7-11.4-1.1-18.8-2.1c-2.1,8.2-3.2,12.5-5.6,22C477.5,445.9,475.9,445.6,472.8,444.8z"/>
			<path fill="#F8F8F8" d="M544.8,454.8c-3.3-10.1-4.8-14.8-7.7-23.5c-1.2,0.2-2.4,0.2-3.7,0.1c-2.7-0.1-4.1-0.2-6.7-0.3
				c-1,8.3-1.5,12.8-2.6,22.4c-3.5-0.3-5.2-0.5-8.7-0.9c2.8-20,5.7-40,8.6-60c5.5,0,8.3,0,13.8,0c10.7-0.5,17.4,8.3,17,18.3
				c-0.3,7.2-3.3,14.5-10,18c3.4,9.7,5.3,14.9,9.4,26.2C550.6,455,548.6,455,544.8,454.8z M534.4,423.3c8.2,0.4,12.5-5.1,12.9-12.5
				c0.4-7.6-3.2-11.8-10.7-11.9c-2.5,0-3.7,0-6.2,0c-1,8.9-1.6,13.6-2.8,24.2C530.4,423.2,531.7,423.2,534.4,423.3z"/>
			<path fill="#F8F8F8" d="M567.9,455c-0.5-20.8-1-41.7-1.6-62.5c10.9,0,16.4,0,27.3,0c0.3,2.5,0.5,3.8,0.9,6.4
				c-8.3,0.1-12.4,0.1-20.7,0.2c0.4,7.3,0.6,11.1,1,19.5c7.6-0.2,11.4-0.3,18.9-0.6c0.4,3,0.6,4.5,0.9,7.7
				c-7.8,0.4-11.6,0.6-19.5,0.8c0.4,7.1,0.6,10.9,1,18.9c9.8-0.4,14.7-0.7,24.3-1.6c0.5,3.5,0.7,5.3,1.2,9.1
				C590.4,453.9,579.2,454.6,567.9,455z"/>
			<path fill="#F8F8F8" d="M616,451c-3.5-19.5-7-39-10.5-58.5c10.9,0,16.4,0,27.3,0c0.6,2.2,0.9,3.3,1.6,5.6
				c-8.2,0.2-12.3,0.3-20.5,0.5c1.4,6.8,2.2,10.3,3.8,18c7.4-0.5,11.1-0.9,18.3-1.6c0.7,2.6,1.1,4,1.8,6.7c-7.3,1-11.1,1.4-18.6,2.1
				c1.4,6.5,2.1,9.9,3.6,17.2c9.3-1.4,13.9-2.2,22.7-4.1c0.9,3,1.3,4.5,2.2,7.7C637.1,447.4,626.6,449.3,616,451z"/>
		</g>
	</g>
	<text transform="matrix(1 0 0 1 545.3498 472.4968)" fill="#2C2D2C" font-family="'MissionGothic-Regular'" font-size="19.4007">THE</text>
	<path opacity="0.22" d="M357,335.7l-8.4,45.8l6.6,1.8l-7.2,1.2l-3.4,18.5l5.4,2.3L344,407l-2.9,15.7l6.2,3.5l-7.2,1.5l-1.7,9.6
		l12.5,2.1l-13.7,4.3l-4,22l11.9,3l-12.8,2.2l-4.4,24.2l5.1,2.3l-5.9,1.7l-1.6,8.9l11.2,2l-12.5,5.5l-4.8,26.1l9.4,1.9l-10.3,3
		l-2.1,11.4l3.9,3.3l-4.9,2.4l-1.7,9.3h35v21h16.7v-21h35l-1.6-8.5l-8.7-4.1l7.8-0.9l-4.7-25.9l-14.1-0.2l13.5-3.4l-1.2-6.3
		c0,0-7.8-3.9-9.4-3.9c-1.6,0,6.7-1.1,8.4-1.8l-3.5-19.1l-9.2-3.4l8.1-2.9l-2.3-12.5l-6-2.1l5.4-1.6l-2.7-14.9l-12.1-4.9l10.9-1.7
		l-3.2-17.3l-9.9-5l8.7-1.5l-3.1-16.9l-9.4-3.8l8.5-0.7l-1.3-7l-3.9-0.9l3.4-2l-1.8-10.1l-5.2-1.6l4.6-2.1L357,335.7"/>
	<path opacity="0.22" d="M263.2,315.4l-7.1,49.4l5.6,1.9l-6.1,1.3l-2.9,20l4.6,2.4l-5.2,2l-2.4,16.9l5.3,3.8l-6.1,1.6l-1.5,10.3
		l10.6,2.2l-11.6,4.7l-3.4,23.7l10,3.2l-10.8,2.4l-3.7,26.1l4.3,2.5l-5,1.9l-1.4,9.5l9.4,2.2l-10.6,6l-4,28.2l8,2.1l-8.8,3.2
		l-1.8,12.3l3.3,3.6l-4.1,2.6l-1.4,10h29.6v22.6h14.1v-22.6h29.6l-1.3-9.2l-7.3-4.4l6.6-0.9l-4-27.9l-12-0.2l11.4-3.7l-1-6.8
		c0,0-6.6-4.2-8-4.2s5.7-1.2,7.1-2l-3-20.6l-7.8-3.7l6.8-3.1l-1.9-13.4l-5.1-2.2l4.5-1.8l-2.3-16.1l-10.2-5.3l9.2-1.8l-2.7-18.7
		l-8.4-5.4l7.4-1.7l-2.6-18.3l-7.9-4.1l7.2-0.8l-1.1-7.5l-3.3-1l2.9-2.2l-1.6-10.8l-4.4-1.7l3.9-2.2L263.2,315.4"/>
	<path opacity="0.22" d="M842.2,315.4l-7.1,49.4l5.6,1.9l-6.1,1.3l-2.9,20l4.6,2.4l-5.2,2l-2.4,16.9l5.3,3.8l-6.1,1.6l-1.5,10.3
		l10.6,2.2l-11.6,4.7l-3.4,23.7l10,3.2l-10.8,2.4l-3.7,26.1l4.3,2.5l-5,1.9l-1.4,9.5l9.4,2.2l-10.6,6l-4,28.2l8,2.1l-8.8,3.2
		l-1.8,12.3l3.3,3.6l-4.1,2.6l-1.4,10h29.6v22.6h14.1v-22.6h29.6l-1.3-9.2l-7.3-4.4l6.6-0.9l-4-27.9l-12-0.2l11.4-3.7l-1-6.8
		c0,0-6.6-4.2-8-4.2c-1.4,0,5.7-1.2,7.1-2l-3-20.6l-7.8-3.7l6.8-3.1l-1.9-13.4l-5.1-2.2l4.5-1.8l-2.3-16.1l-10.2-5.3l9.2-1.8
		l-2.7-18.7l-8.4-5.4l7.4-1.7l-2.6-18.3l-7.9-4.1l7.2-0.8l-1.1-7.5l-3.3-1l2.9-2.2l-1.6-10.8l-4.4-1.7l3.9-2.2L842.2,315.4"/>
	<path opacity="0.22" d="M308.7,397.3l-6.4,34.9l5,1.3l-5.5,0.9l-2.6,14.1l4.1,1.7l-4.7,1.4l-2.2,12l4.8,2.7l-5.5,1.1l-1.3,7.3
		l9.6,1.6l-10.4,3.3l-3.1,16.8l9,2.2l-9.8,1.7l-3.4,18.4l3.9,1.7l-4.5,1.3l-1.2,6.7l8.5,1.5l-9.6,4.2l-3.6,19.9l7.2,1.5l-7.9,2.3
		l-1.6,8.7l2.9,2.5l-3.7,1.8l-1.3,7.1h26.6v16H315v-16h26.6l-1.2-6.5l-6.6-3.1l5.9-0.7l-3.6-19.7l-10.8-0.2l10.3-2.6l-0.9-4.8
		c0,0-5.9-3-7.2-3s5.1-0.8,6.4-1.4l-2.7-14.6l-7-2.6l6.1-2.2l-1.7-9.5l-4.6-1.6l4.1-1.2l-2.1-11.3l-9.2-3.7l8.3-1.3l-2.4-13.2
		l-7.5-3.8l6.6-1.2l-2.4-12.9l-7.1-2.9l6.5-0.6l-1-5.3l-3-0.7l2.6-1.5l-1.4-7.7l-4-1.2l3.5-1.6L308.7,397.3"/>
	<path opacity="0.22" d="M878.8,445l-4.8,26.4l3.8,1l-4.1,0.7l-1.9,10.7l3.1,1.3l-3.5,1.1l-1.7,9.1l3.6,2l-4.1,0.8l-1,5.5l7.2,1.2
		l-7.9,2.5l-2.3,12.7l6.8,1.7l-7.4,1.3l-2.5,13.9l3,1.3l-3.4,1l-0.9,5.1l6.4,1.2l-7.2,3.2l-2.7,15.1l5.4,1.1l-6,1.7l-1.2,6.6
		l2.2,1.9l-2.8,1.4l-1,5.4H874v12.1h9.6v-12.1h20.2l-0.9-4.9l-5-2.3l4.5-0.5l-2.7-14.9l-8.2-0.1l7.8-2l-0.7-3.7c0,0-4.5-2.3-5.4-2.3
		s3.9-0.6,4.8-1l-2-11l-5.3-2l4.7-1.6l-1.3-7.2l-3.5-1.2l3.1-0.9l-1.6-8.6l-7-2.8l6.3-1l-1.8-10l-5.7-2.9l5-0.9l-1.8-9.8l-5.4-2.2
		l4.9-0.4l-0.7-4l-2.3-0.5l2-1.2l-1.1-5.8l-3-0.9l2.6-1.2L878.8,445"/>
	<path opacity="0.22" d="M394.7,386.4l-11.6,36.8l9.2,1.4l-9.9,1l-4.7,14.9l7.5,1.8l-8.5,1.5l-4,12.6l8.6,2.8l-9.9,1.2l-2.4,7.7
		l17.4,1.7l-19,3.5l-5.6,17.7l16.4,2.4l-17.7,1.8l-6.1,19.4l7.1,1.8l-8.1,1.4l-2.2,7.1l15.5,1.6l-17.4,4.5l-6.6,21l13.1,1.6
		l-14.3,2.4l-2.9,9.2l5.3,2.7l-6.8,1.9l-2.4,7.5h48.4v16.9h23.1V577h48.4l-2.2-6.9l-12-3.3l10.7-0.7l-6.5-20.8l-19.6-0.2l18.7-2.8
		l-1.6-5.1c0,0-10.8-3.1-13-3.1c-2.3,0,9.3-0.9,11.6-1.5l-4.8-15.4l-12.8-2.8l11.2-2.3l-3.2-10l-8.3-1.7l7.4-1.3l-3.8-12l-16.7-3.9
		l15.1-1.3l-4.4-13.9l-13.7-4l12-1.2l-4.3-13.6l-13-3.1l11.8-0.6l-1.8-5.6l-5.4-0.8l4.7-1.6l-2.5-8.1l-7.3-1.3l6.3-1.7L394.7,386.4"
		/>
	<path opacity="0.22" d="M147,335.7l-8.4,45.8l6.6,1.8l-7.2,1.2l-3.4,18.5l5.4,2.3L134,407l-2.9,15.7l6.2,3.5l-7.2,1.5l-1.7,9.6
		l12.5,2.1l-13.7,4.3l-4,22l11.9,3l-12.8,2.2l-4.4,24.2l5.1,2.3l-5.9,1.7l-1.6,8.9l11.2,2l-12.5,5.5l-4.8,26.1l9.4,1.9l-10.3,3
		l-2.1,11.4l3.9,3.3l-4.9,2.4l-1.7,9.3h35v21h16.7v-21h35l-1.6-8.5l-8.7-4.1l7.8-0.9l-4.7-25.9l-14.1-0.2l13.5-3.4l-1.2-6.3
		c0,0-7.8-3.9-9.4-3.9s6.7-1.1,8.4-1.8l-3.5-19.1l-9.2-3.4l8.1-2.9l-2.3-12.5l-6-2.1l5.4-1.6l-2.7-14.9l-12.1-4.9l10.9-1.7
		l-3.2-17.3l-9.9-5l8.7-1.5l-3.1-16.9l-9.4-3.8l8.5-0.7l-1.3-7l-3.9-0.9l3.4-2l-1.8-10.1l-5.2-1.6l4.6-2.1L147,335.7"/>
	<path opacity="0.22" d="M53.2,315.4l-7.1,49.4l5.6,1.9l-6.1,1.3l-2.9,20l4.6,2.4l-5.2,2l-2.4,16.9l5.3,3.8l-6.1,1.6L37.5,425
		l10.6,2.2l-11.6,4.7l-3.4,23.7l10,3.2l-10.8,2.4l-3.7,26.1l4.3,2.5l-5,1.9l-1.4,9.5l9.4,2.2l-10.6,6l-4,28.2l8,2.1l-8.8,3.2
		l-1.8,12.3l3.3,3.6l-4.1,2.6l-1.4,10h29.6v22.6h14.1v-22.6h29.6l-1.3-9.2l-7.3-4.4l6.6-0.9l-4-27.9l-12-0.2l11.4-3.7l-1-6.8
		c0,0-6.6-4.2-8-4.2s5.7-1.2,7.1-2l-3-20.6l-7.8-3.7l6.8-3.1l-1.9-13.4l-5.1-2.2l4.5-1.8L72.6,451l-10.2-5.3l9.2-1.8l-2.7-18.7
		l-8.4-5.4l7.4-1.7l-2.6-18.3l-7.9-4.1l7.2-0.8l-1.1-7.5l-3.3-1l2.9-2.2l-1.6-10.8l-4.4-1.7l3.9-2.2L53.2,315.4"/>
	<path opacity="0.22" d="M98.7,397.3l-6.4,34.9l5,1.3l-5.5,0.9l-2.6,14.1l4.1,1.7l-4.7,1.4l-2.2,12l4.8,2.7l-5.5,1.1l-1.3,7.3
		l9.6,1.6l-10.4,3.3l-3.1,16.8l9,2.2l-9.8,1.7l-3.4,18.4l3.9,1.7l-4.5,1.3l-1.2,6.7l8.5,1.5l-9.6,4.2L70.1,554l7.2,1.5l-7.9,2.3
		l-1.6,8.7l2.9,2.5l-3.7,1.8l-1.3,7.1h26.6v16H105v-16h26.6l-1.2-6.5l-6.6-3.1l5.9-0.7l-3.6-19.7l-10.8-0.2l10.3-2.6l-0.9-4.8
		c0,0-5.9-3-7.2-3s5.1-0.8,6.4-1.4l-2.7-14.6l-7-2.6l6.1-2.2l-1.7-9.5l-4.6-1.6l4.1-1.2l-2.1-11.3l-9.2-3.7l8.3-1.3l-2.4-13.2
		l-7.5-3.8l6.6-1.2l-2.4-12.9l-7.1-2.9l6.5-0.6l-1-5.3l-3-0.7l2.6-1.5l-1.4-7.7l-4-1.2l3.5-1.6L98.7,397.3"/>
	<path opacity="0.22" d="M184.7,386.4l-11.6,36.8l9.2,1.4l-9.9,1l-4.7,14.9l7.5,1.8l-8.5,1.5l-4,12.6l8.6,2.8l-9.9,1.2l-2.4,7.7
		l17.4,1.7l-19,3.5l-5.6,17.7l16.4,2.4l-17.7,1.8l-6.1,19.4l7.1,1.8l-8.1,1.4l-2.2,7.1l15.5,1.6l-17.4,4.5l-6.6,21l13.1,1.6
		l-14.3,2.4l-2.9,9.2l5.3,2.7l-6.8,1.9l-2.4,7.5h48.4v16.9h23.1V577h48.4l-2.2-6.9l-12-3.3l10.7-0.7l-6.5-20.8l-19.6-0.2l18.7-2.8
		l-1.6-5.1c0,0-10.8-3.1-13-3.1c-2.3,0,9.3-0.9,11.6-1.5l-4.8-15.4l-12.8-2.8l11.2-2.3l-3.2-10l-8.3-1.7l7.4-1.3l-3.8-12l-16.7-3.9
		l15.1-1.3l-4.4-13.9l-13.7-4l12-1.2l-4.3-13.6l-13-3.1l11.8-0.6l-1.8-5.6l-5.4-0.8l4.7-1.6l-2.5-8.1l-7.3-1.3l6.3-1.7L184.7,386.4"
		/>
	<path opacity="0.22" d="M777.4,424.4l-9.4,30l7.5,1.2l-8.1,0.8l-3.8,12.1l6.1,1.5l-6.9,1.2l-3.2,10.3l7.1,2.3l-8.1,1l-2,6.3
		l14.2,1.3l-15.5,2.8l-4.5,14.4l13.4,1.9l-14.5,1.4l-5,15.9l5.8,1.5l-6.6,1.1l-1.8,5.8l12.6,1.3l-14.2,3.6l-5.4,17.1l10.7,1.3
		l-11.7,2l-2.4,7.5l4.4,2.2l-5.5,1.6l-1.9,6.1H768v13.8h18.8v-13.8h39.5l-1.8-5.6l-9.8-2.7l8.8-0.6l-5.3-17l-16-0.1l15.2-2.2
		l-1.3-4.2c0,0-8.8-2.6-10.6-2.6c-1.9,0,7.6-0.7,9.5-1.2l-3.9-12.5l-10.4-2.2l9.1-1.9l-2.6-8.2l-6.8-1.4l6.1-1.1l-3.1-9.8l-13.7-3.2
		l12.3-1.1l-3.6-11.4l-11.2-3.3l9.8-1l-3.5-11.1l-10.6-2.5l9.7-0.5l-1.4-4.6l-4.4-0.6l3.8-1.3l-2.1-6.6l-5.9-1l5.2-1.4L777.4,424.4"
		/>
	<path opacity="0.22" d="M731.6,371.8l-8.6,39.4l6.8,1.5l-7.4,1.1l-3.5,15.9l5.5,1.9l-6.3,1.6l-2.9,13.5l6.4,3l-7.4,1.3l-1.8,8.2
		l12.9,1.8l-14.1,3.7l-4.1,18.9l12.2,2.5l-13.2,1.9l-4.5,20.8l5.3,2l-6,1.5l-1.7,7.6l11.5,1.7l-12.9,4.8l-4.9,22.5l9.7,1.7
		l-10.6,2.6l-2.1,9.8l4,2.9l-5,2l-1.7,8h36v18.1h17.1v-18.1h36l-1.6-7.3l-8.9-3.5l8-0.7l-4.9-22.3l-14.5-0.2l13.9-2.9l-1.2-5.4
		c0,0-8-3.4-9.7-3.4s6.9-0.9,8.6-1.6l-3.6-16.4l-9.5-2.9l8.3-2.5l-2.3-10.7l-6.2-1.8l5.5-1.4l-2.8-12.8l-12.4-4.2l11.2-1.4
		l-3.2-14.9l-10.2-4.3l8.9-1.3l-3.2-14.6l-9.6-3.3l8.8-0.6l-1.3-6l-4-0.8l3.5-1.7l-1.9-8.7l-5.4-1.4l4.7-1.8L731.6,371.8"/>
	<path opacity="0.22" d="M1033.9,315.4l-7.1,49.4l5.6,1.9l-6.1,1.3l-2.9,20l4.6,2.4l-5.2,2l-2.4,16.9l5.3,3.8l-6.1,1.6l-1.5,10.3
		l10.6,2.2l-11.6,4.7l-3.4,23.7l10,3.2l-10.8,2.4l-3.7,26.1l4.3,2.5l-5,1.9l-1.4,9.5l9.4,2.2l-10.6,6l-4,28.2l8,2.1l-8.8,3.2
		l-1.8,12.3l3.3,3.6l-4.1,2.6l-1.4,10h29.6v22.6h14.1v-22.6h29.6l-1.3-9.2l-7.3-4.4l6.6-0.9l-4-27.9l-12-0.2l11.4-3.7l-1-6.8
		c0,0-6.6-4.2-8-4.2s5.7-1.2,7.1-2l-3-20.6l-7.8-3.7l6.8-3.1l-1.9-13.4l-5.1-2.2l4.5-1.8l-2.3-16.1l-10.2-5.3l9.2-1.8l-2.7-18.7
		l-8.4-5.4l7.4-1.7l-2.6-18.3l-7.9-4.1l7.2-0.8l-1.1-7.5l-3.3-1l2.9-2.2l-1.6-10.8l-4.4-1.7l3.9-2.2L1033.9,315.4"/>
	<path opacity="0.22" d="M1070.5,445l-4.8,26.4l3.8,1l-4.1,0.7l-1.9,10.7l3.1,1.3l-3.5,1.1l-1.7,9.1l3.6,2l-4.1,0.8l-1,5.5l7.2,1.2
		l-7.9,2.5l-2.3,12.7l6.8,1.7l-7.4,1.3l-2.5,13.9l3,1.3l-3.4,1l-0.9,5.1l6.4,1.2l-7.2,3.2l-2.7,15.1l5.4,1.1l-6,1.7l-1.2,6.6
		l2.2,1.9l-2.8,1.4l-1,5.4h20.2v12.1h9.6v-12.1h20.2l-0.9-4.9l-5-2.3l4.5-0.5l-2.7-14.9l-8.2-0.1l7.8-2l-0.7-3.7
		c0,0-4.5-2.3-5.4-2.3s3.9-0.6,4.8-1l-2-11l-5.3-2l4.7-1.6l-1.3-7.2l-3.5-1.2l3.1-0.9l-1.6-8.6l-7-2.8l6.3-1l-1.8-10l-5.7-2.9l5-0.9
		l-1.8-9.8l-5.4-2.2l4.9-0.4l-0.7-4l-2.3-0.5l2-1.2l-1.1-5.8l-3-0.9l2.6-1.2L1070.5,445"/>
	<path opacity="0.22" d="M969.1,424.4l-9.4,30l7.5,1.2l-8.1,0.8l-3.8,12.1l6.1,1.5l-6.9,1.2l-3.2,10.3l7.1,2.3l-8.1,1l-2,6.3
		l14.2,1.3l-15.5,2.8l-4.5,14.4l13.4,1.9l-14.5,1.4l-5,15.9l5.8,1.5l-6.6,1.1l-1.8,5.8l12.6,1.3l-14.2,3.6l-5.4,17.1l10.7,1.3
		l-11.7,2l-2.4,7.5l4.4,2.2L922,574l-1.9,6.1h39.5v13.8h18.8v-13.8h39.5l-1.8-5.6l-9.8-2.7l8.8-0.6l-5.3-17l-16-0.1l15.2-2.2
		l-1.3-4.2c0,0-8.8-2.6-10.6-2.6s7.6-0.7,9.5-1.2l-3.9-12.5l-10.4-2.2l9.1-1.9l-2.6-8.2l-6.8-1.4l6.1-1.1l-3.1-9.8l-13.7-3.2
		l12.3-1.1l-3.6-11.4l-11.2-3.3l9.8-1l-3.5-11.1l-10.6-2.5l9.7-0.5l-1.4-4.6l-4.4-0.6l3.8-1.3l-2.1-6.6l-5.9-1l5.2-1.4L969.1,424.4"
		/>
	<path opacity="0.22" d="M923.3,371.8l-8.6,39.4l6.8,1.5l-7.4,1.1l-3.5,15.9l5.5,1.9l-6.3,1.6l-2.9,13.5l6.4,3L906,451l-1.8,8.2
		l12.9,1.8l-14.1,3.7l-4.1,18.9l12.2,2.5l-13.2,1.9l-4.5,20.8l5.3,2l-6,1.5l-1.7,7.6l11.5,1.7l-12.9,4.8l-4.9,22.5l9.7,1.7
		l-10.6,2.6l-2.1,9.8l4,2.9l-5,2l-1.7,8h36v18.1h17.1v-18.1h36l-1.6-7.3l-8.9-3.5l8-0.7l-4.9-22.3l-14.5-0.2l13.9-2.9l-1.2-5.4
		c0,0-8-3.4-9.7-3.4s6.9-0.9,8.6-1.6l-3.6-16.4l-9.5-2.9l8.3-2.5l-2.3-10.7l-6.2-1.8l5.5-1.4l-2.8-12.8l-12.4-4.2l11.2-1.4
		l-3.2-14.9l-10.2-4.3l8.9-1.3l-3.2-14.6l-9.6-3.3l8.8-0.6l-1.3-6l-4-0.8l3.5-1.7l-1.9-8.7l-5.4-1.4l4.7-1.8L923.3,371.8"/>
	<path fill="#464B4D" d="M541.4,470.3v-9c-39.8-0.8-75.5-10.2-75.5-10.2c-7,9.2-11.2,32-11.2,32S482.6,473.3,541.4,470.3z"/>
	<path fill="#464B4D" d="M578.9,470.3v-9c39.8-0.8,75.5-10.2,75.5-10.2c7,9.2,11.2,32,11.2,32S637.6,473.3,578.9,470.3z"/>
	<g opacity="0.75">
		<path fill="#FFFFFF" d="M546.5,121.2V108h1.7v11.5h4.5v1.7H546.5z"/>
		<path fill="#FFFFFF" d="M548.2,139.9v-13.1h1.7v13.1H548.2z"/>
		<path fill="#FFFFFF" d="M548.1,158.7l-3.4-13.1h1.8l2.2,9.1c0.2,0.6,0.3,1.4,0.3,1.4h0c0,0,0.1-0.7,0.3-1.4l2.3-9.1h1.8l-3.4,13.1
			H548.1z"/>
		<path fill="#FFFFFF" d="M545.8,177.5v-13.1h6.6v1.7h-4.9v4.5h4.2v1.7h-4.2v3.6h4.9v1.7H545.8z"/>
		<path fill="#FFFFFF" d="M552.3,201.1v-8.9c0-0.5,0-1.2,0-1.2h0c0,0-0.2,0.6-0.5,1l-2.6,4.8H549l-2.6-4.7c-0.2-0.4-0.5-1-0.5-1h0
			c0,0,0,0.7,0,1.2v8.9h-1.7V188h1.9l2.4,4.6c0.2,0.4,0.5,1.1,0.5,1.1h0c0,0,0.3-0.6,0.5-1.1l2.4-4.6h1.9v13.1H552.3z"/>
		<path fill="#FFFFFF" d="M551.2,206.7h1.7v8.8c0,3.1-1.6,4.6-3.8,4.6c-2.3,0-3.9-1.5-3.9-4.6v-8.7h1.7v8.6c0,1.7,0.5,3.1,2.1,3.1
			c1.7,0,2.1-1.4,2.1-3.1V206.7z"/>
		<path fill="#FFFFFF" d="M546.4,235.4c0.4,1.1,1.4,1.8,2.6,1.8c1.4,0,2.2-0.8,2.2-2c0-2.8-5.9-2.3-5.9-6.4c0-1.9,1.4-3.5,3.6-3.5
			c2,0,3.2,1.1,3.8,2.6l-1.6,0.9c-0.3-1.1-1-1.9-2.3-1.9c-1.2,0-1.8,0.8-1.8,1.7c0,2.9,5.8,2.2,5.8,6.5c0,2.1-1.5,3.7-3.9,3.7
			c-2,0-3.5-1-4.1-2.5L546.4,235.4z"/>
		<path fill="#FFFFFF" d="M548.2,257.4v-13.1h1.7v13.1H548.2z"/>
		<path fill="#FFFFFF" d="M553.3,273.6c-0.6,1.7-1.8,2.8-3.8,2.8c-3.3,0-4.4-3.2-4.4-6.8s1.1-6.8,4.4-6.8c2,0,3.2,1.2,3.9,3
			l-1.5,0.8c-0.4-1.3-1.1-2.2-2.3-2.2c-2,0-2.7,2.2-2.7,5.1s0.7,5.1,2.7,5.1c1.2,0,1.9-0.8,2.3-2L553.3,273.6z"/>
	</g>
	<g opacity="0.75">
		<path fill="#FFFFFF" d="M573.4,142.4l-1.9-4.3c-0.2,0.1-0.5,0.1-0.8,0.1h-1.4v4.2h-1.7v-13.1h3.4c2.9,0,4.2,2,4.2,4.4
			c0,1.7-0.7,3.1-2,3.9l2.1,4.8H573.4z M570.8,136.5c1.8,0,2.7-1.1,2.7-2.8c0-1.7-0.9-2.8-2.7-2.8h-1.5v5.6H570.8z"/>
		<path fill="#FFFFFF" d="M573.7,161.1l-0.7-2.7h-3.7l-0.7,2.7h-1.8l3.4-13.1h1.9l3.4,13.1H573.7z M571.5,151.9
			c-0.1-0.5-0.3-1.3-0.3-1.3h0c0,0-0.2,0.8-0.3,1.3l-1.2,5h3L571.5,151.9z"/>
		<path fill="#FFFFFF" d="M568.3,179.9v-13.1h6.6v1.7H570v5.1h4.2v1.7H570v4.7H568.3z"/>
		<path fill="#FFFFFF" d="M568.3,198.7v-13.1h6.6v1.7H570v5.1h4.2v1.7H570v4.7H568.3z"/>
		<path fill="#FFFFFF" d="M568.6,217.4v-13.1h1.7v11.5h4.5v1.7H568.6z"/>
		<path fill="#FFFFFF" d="M568,236.2v-13.1h6.6v1.7h-4.9v4.5h4.2v1.7h-4.2v3.6h4.9v1.7H568z"/>
		<path fill="#FFFFFF" d="M568.5,251.7c0.4,1.1,1.4,1.8,2.6,1.8c1.4,0,2.2-0.8,2.2-2c0-2.8-5.9-2.3-5.9-6.4c0-1.9,1.4-3.5,3.6-3.5
			c2,0,3.2,1.1,3.8,2.6l-1.6,0.9c-0.3-1.1-1-1.9-2.3-1.9c-1.2,0-1.8,0.8-1.8,1.7c0,2.9,5.8,2.2,5.8,6.5c0,2.1-1.5,3.7-3.9,3.7
			c-2,0-3.5-1-4.1-2.5L568.5,251.7z"/>
	</g>
	<g>
		<path fill="#2C2D2C" d="M557.2,109.3V96.2h6.6v1.7h-4.9v5.1h4.2v1.7h-4.2v4.7H557.2z"/>
		<path fill="#2C2D2C" d="M555.8,121.5c0-3.7,1.1-6.8,4.4-6.8c3.2,0,4.4,3,4.4,6.8s-1.1,6.8-4.4,6.8
			C556.9,128.3,555.8,125.2,555.8,121.5z M562.8,121.5c0-3.1-0.8-5.1-2.6-5.1c-1.9,0-2.6,2-2.6,5.1s0.8,5.1,2.6,5.1
			C562,126.6,562.8,124.6,562.8,121.5z"/>
		<path fill="#2C2D2C" d="M555.8,140.3c0-3.7,1.1-6.8,4.4-6.8c3.2,0,4.4,3,4.4,6.8s-1.1,6.8-4.4,6.8
			C556.9,147.1,555.8,144,555.8,140.3z M562.8,140.3c0-3.1-0.8-5.1-2.6-5.1c-1.9,0-2.6,2-2.6,5.1s0.8,5.1,2.6,5.1
			C562,145.4,562.8,143.4,562.8,140.3z"/>
		<path fill="#2C2D2C" d="M556.5,165.6v-13.1h3c3.5,0,4.8,3,4.8,6.6s-1.3,6.6-4.7,6.6H556.5z M559.6,164c2.1,0,3-2,3-4.9
			s-0.9-4.9-3.1-4.9h-1.3v9.8H559.6z"/>
		<path fill="#2C2D2C" d="M564.6,189.3c-0.8,0-1.5-0.7-1.9-1.5h0c-0.7,1-1.8,1.7-3.3,1.7c-2.6,0-4.1-2.1-4.1-4.2
			c0-1.8,1-3.3,2.7-3.8v0c-0.9-0.6-1.6-1.5-1.6-2.5c0-1.5,1.1-3,3.2-3c1.2,0,2,0.5,2.6,1.1l-1.2,1.4c-0.3-0.5-0.7-0.8-1.4-0.8
			c-0.9,0-1.5,0.7-1.5,1.5c0,0.8,0.6,1.8,2.1,1.8l2.3,4.1h0c0.2-0.8,0.3-2,0.3-3c0-0.4,0-0.7,0-1.1h1.7c0,2.3-0.3,4.1-0.9,5.6
			c0.3,0.6,0.8,1,1.3,1.1L564.6,189.3z M559.5,182.4c-1.5,0.1-2.3,1.6-2.3,2.9c0,1.4,0.8,2.6,2.4,2.6c1,0,1.8-0.5,2.3-1.4
			L559.5,182.4z"/>
		<path fill="#2C2D2C" d="M556.5,212.9v-13.1h3c3.5,0,4.8,3,4.8,6.6s-1.3,6.6-4.7,6.6H556.5z M559.6,211.3c2.1,0,3-2,3-4.9
			s-0.9-4.9-3.1-4.9h-1.3v9.8H559.6z"/>
		<path fill="#2C2D2C" d="M562.3,231.7l-1.9-4.3c-0.2,0.1-0.5,0.1-0.8,0.1h-1.4v4.2h-1.7v-13.1h3.4c2.9,0,4.2,2,4.2,4.4
			c0,1.7-0.7,3.1-2,3.9l2.1,4.8H562.3z M559.7,225.8c1.8,0,2.7-1.1,2.7-2.8c0-1.7-0.9-2.8-2.7-2.8h-1.5v5.6H559.7z"/>
		<path fill="#2C2D2C" d="M559.3,250.5v-13.1h1.7v13.1H559.3z"/>
		<path fill="#2C2D2C" d="M562.5,269.2l-4.8-9.7h0c0,0,0.1,0.7,0.1,1.3v8.4h-1.6v-13.1h1.6l4.3,8.4c0.2,0.4,0.5,1.1,0.5,1.1h0
			c0-0.1,0-0.8,0-1.3v-8.3h1.6v13.1H562.5z"/>
		<path fill="#2C2D2C" d="M562.7,288l-2.4-5c-0.2-0.5-0.5-1-0.5-1.2h-0.1c-0.2,0.2-0.6,1-1.2,1.7v4.4h-1.7v-13.1h1.7v4.3
			c0,0.5,0,1.4,0,1.6h0l3.9-5.9h2l-3.7,5.4l3.7,7.8H562.7z"/>
	</g>
	<g>
		<path fill="#E6BD2E" d="M550.2,26.7l-0.9-3.4h-4.8l-0.8,3.4h-2.3l4.4-16.8h2.4l4.4,16.8H550.2z M547.4,14.9
			c-0.2-0.6-0.3-1.7-0.3-1.7h0c0,0-0.2,1-0.4,1.7l-1.6,6.3h3.9L547.4,14.9z"/>
		<path fill="#E6BD2E" d="M561.9,9.9h2.2v11.2c0,4-2,5.8-4.9,5.8s-5-1.9-5-5.9V9.9h2.2v11c0,2.2,0.6,3.9,2.7,3.9
			c2.2,0,2.7-1.7,2.7-4V9.9z"/>
		<path fill="#E6BD2E" d="M573.3,20.1V18h4.9c0,5.1-1.3,9-5.4,9c-4.2,0-5.6-4-5.6-8.6c0-4.6,1.4-8.6,5.6-8.6c2.6,0,4.2,1.6,5,3.9
			l-2,1.1c-0.5-1.8-1.4-2.9-3-2.9c-2.5,0-3.4,2.9-3.4,6.5c0,3.7,0.9,6.5,3.4,6.5c2.2,0,3-2.2,3-4.7H573.3z"/>
	</g>
	<g>
		<path fill="#E6BD2E" d="M545.9,66.7V37.3H543v-4.2h7.2v33.6H545.9z"/>
		<path fill="#E6BD2E" d="M572.1,41.1c-0.9-2.6-2.4-4.2-4.8-4.2c-4.3,0-6.3,5.2-6.3,13.2l0.1,0c1.2-2.3,3.6-4.3,6.8-4.3
			c6.1,0,9.1,4.9,9.1,10c0,5.6-3.6,11.4-9.8,11.4c-8.1,0-10.4-8.2-10.4-17.5c0-9,3-17.1,10.5-17.1c4.5,0,7.2,2.5,8.7,6.1L572.1,41.1
			z M572.3,55.8c0-3.2-1.7-6.1-5.2-6.1c-3.6,0-5.5,2.9-5.5,6.5c0,3.7,2,6.7,5.3,6.7S572.3,59.2,572.3,55.8z"/>
	</g>
	<g>
		<path fill="#E6BD2E" d="M543.2,85.3C543.2,85.3,543.2,85.3,543.2,85.3l5.3-7.6c0.6-0.9,1-1.9,1-2.7c0-1.2-0.8-2.1-2.1-2.1
			c-1.2,0-2.1,0.9-2.2,2.4l-1.7-0.7c0.4-1.9,1.8-3.5,4-3.5c2.6,0,3.9,1.8,3.9,3.9c0,1.2-0.5,2.5-1.3,3.6l-2.1,3.1
			c-0.8,1.2-1.4,1.8-1.4,1.8v0h4.7v1.8H543.2z"/>
		<path fill="#E6BD2E" d="M553.2,78.3c0-3.8,0.9-7.2,4.2-7.2s4.2,3.4,4.2,7.2s-0.9,7.2-4.2,7.2S553.2,82.1,553.2,78.3z M559.8,78.3
			c0-3-0.5-5.4-2.4-5.4c-1.9,0-2.4,2.5-2.4,5.4s0.5,5.4,2.4,5.4C559.4,83.8,559.8,81.3,559.8,78.3z"/>
		<path fill="#E6BD2E" d="M564.6,85.3V73.1h-1.2v-1.8h3v14H564.6z"/>
		<path fill="#E6BD2E" d="M573.4,85.3v-3h-5.2l5.2-11h1.9v9.2h1.6v1.8h-1.6v3H573.4z M573.5,74.8L573.5,74.8
			c-0.1,0.1-0.4,0.8-0.6,1.3l-1.3,2.8c-0.3,0.7-0.6,1.3-0.9,1.8v0h2.7V74.8z"/>
	</g>
	<circle opacity="0.4" cx="523.2" cy="23.4" r="7"/>
	<circle opacity="0.4" cx="526.6" cy="47" r="7"/>
	<circle opacity="0.4" cx="523.2" cy="69.9" r="7"/>
	<circle opacity="0.4" cx="597.1" cy="23.4" r="7"/>
	<circle opacity="0.4" cx="593.7" cy="47" r="7"/>
	<circle opacity="0.4" cx="597.1" cy="69.9" r="7"/>
	<g>
		<g>
			<path fill="#EA8C58" d="M532.5,310.8c0-2.9,0-10.2,0-13.1c0.6-0.1,0.8-0.1,1.4-0.2c0,2.7,0,8.1,0.1,12.1c1.5,0,2.3-0.1,3.8-0.1
				c0,0.6,0,0.9,0,1.3C535.7,310.8,534.6,310.8,532.5,310.8z"/>
			<path fill="#EA8C58" d="M544.4,310.8c-0.3-0.8-0.4-1.3-0.7-2.5c-1.3,0-1.9,0.1-3.1,0.1c-0.2,1.1-0.3,1.6-0.5,2.4
				c-0.6,0-0.9,0-1.6,0c1-3.5,1.5-10.1,2.4-14c0.6,0,0.9-0.1,1.5-0.1c1.3,3.8,2.1,10,3.5,14.1C545.3,310.8,545,310.8,544.4,310.8z
				 M542,300.6c-0.1-0.6-0.3-1.4-0.3-1.4c0,0,0,0,0,0c0,0-0.1,0.9-0.2,1.4c-0.3,2.3-0.5,3.7-0.8,6.1c1,0,1.5-0.1,2.5-0.1
				C542.8,304.3,542.5,302.9,542,300.6z"/>
			<path fill="#EA8C58" d="M552.5,310.8c-1-1.7-1.4-2.9-2.4-5.3c-0.2-0.5-0.5-1.2-0.5-1.4c0,0,0,0-0.1,0c-0.1,0.3-0.4,1.2-0.9,2.1
				c0.1,2.1,0.2,3.1,0.3,4.5c-0.6,0-0.9,0-1.5,0c-0.4-4.2-0.5-10.1-0.9-14.3c0.6,0,0.8,0,1.4-0.1c0.1,1.4,0.2,2.4,0.3,4.5
				c0,0.5,0.1,1.7,0.1,2c0,0,0,0,0,0c1.1-3,1.7-4.5,2.8-6.5c0.7,0,1,0,1.7,0c-1.1,1.9-1.6,3.2-2.7,5.8c1.5,3.8,2.3,6,3.8,8.7
				C553.5,310.8,553.2,310.8,552.5,310.8z"/>
			<path fill="#EA8C58" d="M555.8,310.8c-0.4-4.7-0.6-9.8-0.9-14.6c2.4,0,3.6,0,6.2,0c0,0.6,0,1,0.1,1.7c-1.9,0-2.8-0.1-4.6-0.1
				c0.1,1.9,0.2,3,0.3,5.2c1.5,0,2.2,0,3.8,0c0,0.8,0,1.2,0.1,2c-1.5,0-2.2,0-3.7,0c0.1,1.7,0.1,2.6,0.2,4.1c1.7,0,2.5,0,4.3,0
				c0,0.7,0,1,0.1,1.7C559.2,310.8,558.1,310.8,555.8,310.8z"/>
			<path fill="#EA8C58" d="M569.3,310.8c-1.7-3.8-2.5-6.4-4.2-10.8c0,0,0,0,0,0c0,0,0.1,0.8,0.1,1.5c0.1,3.9,0.1,6.1,0.1,9.3
				c-0.5,0-0.8,0-1.3,0c-0.1-5.1-0.1-9.4-0.2-14.5c0.6,0,0.8,0,1.4,0c1.5,3.3,2.3,5.6,3.8,9.4c0.2,0.5,0.4,1.3,0.4,1.3c0,0,0,0,0,0
				c0-0.1,0-0.9,0-1.4c0-3.8,0-6-0.1-9.2c0.6,0,0.8,0,1.4,0c0,5.1,0.1,9.2,0.1,14.3C570.2,310.8,569.9,310.8,569.3,310.8z"/>
			<path fill="#EA8C58" d="M573.3,310.8c0-5.1,0-9.2,0-14.3c2.3,0,3.5,0.1,5.8,0.1c0,0.7,0,1,0,1.7c-1.7-0.1-2.6-0.1-4.3-0.1
				c0,1.9,0,2.9,0,5c1.4,0,2.2,0,3.6,0.1c0,0.7,0,1.1,0,1.9c-1.4,0-2.2,0-3.6,0c0,1.7,0,2.5,0,4c1.7,0,2.5,0,4.2,0c0,0.7,0,1,0,1.7
				C576.7,310.8,575.6,310.8,573.3,310.8z"/>
			<path fill="#EA8C58" d="M586.9,310.8c-1.6-3.8-2.4-6.2-4-10.4c0,0,0,0,0,0c0,0,0,0.7,0,1.4c0,3.7-0.1,5.7-0.1,9
				c-0.5,0-0.8,0-1.3,0c0-5.2,0.1-8.9,0.1-14.1c0.6,0,0.8,0,1.4,0.1c1.4,3.4,2.2,5.5,3.6,9.1c0.2,0.5,0.4,1.2,0.4,1.2c0,0,0,0,0,0
				c0-0.1,0-0.9,0-1.4c0.1-3.6,0.1-5.5,0.1-8.8c0.6,0,0.8,0.1,1.4,0.1c-0.1,5.1-0.1,8.6-0.2,13.7
				C587.7,310.8,587.4,310.8,586.9,310.8z"/>
			<path fill="#EA8C58" d="M590.9,310.8c0.1-5.1,0.2-8.4,0.3-13.5c0.6,0,0.9,0.1,1.5,0.1c-0.1,4.4-0.2,7.2-0.3,11.8
				c1.5,0,2.3,0,3.8,0c0,0.6,0,1,0,1.6C594,310.8,593,310.8,590.9,310.8z"/>
			<path fill="#EA8C58" d="M602.7,310.8c-0.2-0.9-0.3-1.4-0.5-2.4c-1.3,0-1.9-0.1-3.2-0.1c-0.3,1-0.4,1.5-0.6,2.5
				c-0.6,0-0.9,0-1.6,0c1.3-4.9,2-7.9,3.3-12.4c0.6,0.1,1,0.2,1.6,0.3c1,4.9,1.5,7.7,2.5,12.2C603.6,310.8,603.3,310.8,602.7,310.8z
				 M601,302.2c-0.1-0.5-0.2-1.2-0.2-1.2c0,0,0,0,0,0c0,0-0.2,0.7-0.3,1.2c-0.5,1.8-0.7,2.8-1.2,4.7c1,0.1,1.5,0.1,2.6,0.1
				C601.6,305.1,601.4,304.1,601,302.2z"/>
			<path fill="#EA8C58" d="M611.3,310.8c-1.5-2.9-2.3-4.6-3.8-8.1c0,0,0,0,0,0c0,0,0,0.6,0,1.1c-0.1,2.8-0.1,4.3-0.2,7
				c-0.5,0-0.8,0-1.3,0c0.1-4.3,0.2-6.9,0.4-11.3c0.5,0.1,0.8,0.2,1.4,0.3c1.4,3,2,4.6,3.4,7.4c0.2,0.4,0.4,0.9,0.4,0.9c0,0,0,0,0,0
				c0,0,0-0.6,0-1c0.1-2.6,0.1-3.9,0.2-6.4c0.5,0.1,0.8,0.2,1.3,0.3c-0.1,3.8-0.2,5.9-0.3,9.7C612.1,310.8,611.8,310.8,611.3,310.8z
				"/>
			<path fill="#EA8C58" d="M615.3,310.8c0.1-3.6,0.1-5.5,0.2-9c1,0.3,1.5,0.4,2.5,0.7c2.9,0.8,3.9,2.7,3.9,4.7s-1.1,3.6-4,3.6
				C616.9,310.8,616.3,310.8,615.3,310.8z M617.9,309.8c1.8,0.1,2.5-1.1,2.6-2.8c0-1.7-0.7-3.1-2.5-3.5c-0.4-0.1-0.6-0.2-1.1-0.3
				c-0.1,2.6-0.1,3.9-0.1,6.5C617.2,309.8,617.5,309.8,617.9,309.8z"/>
		</g>
	</g>
</g>
<g id="Navigation">
	<text transform="matrix(1 0 0 1 1289.4651 0)" fill="#FFFFFF" font-family="'MissionGothic-Regular'" font-size="27.9564">festival</text>
	<text transform="matrix(1 0 0 1 1289.467 35.7287)" fill="#FFFFFF" font-family="'MissionGothic-Regular'" font-size="27.9564">lineup</text>
	<text transform="matrix(1 0 0 1 1289.4668 73.3189)" fill="#FFFFFF" font-family="'MissionGothic-Regular'" font-size="27.9564">tickets</text>
	<text transform="matrix(1 0 0 1 1289.467 108.1994)" fill="#FFFFFF" font-family="'MissionGothic-Regular'" font-size="27.9564">vendors</text>
	<text transform="matrix(1 0 0 1 1289.4661 141.3372)" fill="#FFFFFF" font-family="'MissionGothic-Regular'" font-size="27.9564">volunteer</text>
</g>
<g id="Color_Palette">
	<rect x="1330.6" y="286.7" fill="#2C2D2C" width="109.2" height="75.3"/>
	<rect x="1330.6" y="211.4" fill="#C16528" width="109.2" height="75.3"/>
	<rect x="1330.6" y="362.1" fill="#8C9A9B" width="109.2" height="75.3"/>
	<rect x="1330.6" y="437.4" fill="#E6BD2E" width="109.2" height="75.3"/>
	<rect x="1330.6" y="512.7" fill="#5B6769" width="109.2" height="75.3"/>
</g>
</svg>
