<?xml version="1.0" encoding="utf-8"?>
<!-- Generator: Adobe Illustrator 17.1.0, SVG Export Plug-In . SVG Version: 6.00 Build 0)  -->
<!DOCTYPE svg PUBLIC "-//W3C//DTD SVG 1.1//EN" "http://www.w3.org/Graphics/SVG/1.1/DTD/svg11.dtd">
<svg version="1.1" xmlns="http://www.w3.org/2000/svg" xmlns:xlink="http://www.w3.org/1999/xlink" x="0px" y="0px"
     viewBox="0 0 1112 612.6" enable-background="new 0 0 1112 612.6" xml:space="preserve">
<g id="Content">
    <g xmlns="http://www.w3.org/2000/svg">
        <g>
            <path fill="#F8F8F8" d="M472.8,444.8c4.9-17.4,9.8-34.8,14.8-52.2c10.9,0,16.4,0,27.3,0c-0.4,2.4-0.7,3.7-1.1,6.2     c-8.3-0.1-12.4-0.2-20.6-0.4c-1.9,7.2-2.9,11-5,19.4c7.3,0.8,11,1.1,18.4,1.6c-0.6,2.9-0.8,4.4-1.4,7.4     c-7.6-0.7-11.4-1.1-18.8-2.1c-2.1,8.2-3.2,12.5-5.6,22C477.5,445.9,475.9,445.6,472.8,444.8z"/>
            <path fill="#F8F8F8" d="M544.8,454.8c-3.3-10.1-4.8-14.8-7.7-23.5c-1.2,0.2-2.4,0.2-3.7,0.1c-2.7-0.1-4.1-0.2-6.7-0.3     c-1,8.3-1.5,12.8-2.6,22.4c-3.5-0.3-5.2-0.5-8.7-0.9c2.8-20,5.7-40,8.6-60c5.5,0,8.3,0,13.8,0c10.7-0.5,17.4,8.3,17,18.3     c-0.3,7.2-3.3,14.5-10,18c3.4,9.7,5.3,14.9,9.4,26.2C550.6,455,548.6,455,544.8,454.8z M534.4,423.3c8.2,0.4,12.5-5.1,12.9-12.5     c0.4-7.6-3.2-11.8-10.7-11.9c-2.5,0-3.7,0-6.2,0c-1,8.9-1.6,13.6-2.8,24.2C530.4,423.2,531.7,423.2,534.4,423.3z"/>
            <path fill="#F8F8F8" d="M567.9,455c-0.5-20.8-1-41.7-1.6-62.5c10.9,0,16.4,0,27.3,0c0.3,2.5,0.5,3.8,0.9,6.4     c-8.3,0.1-12.4,0.1-20.7,0.2c0.4,7.3,0.6,11.1,1,19.5c7.6-0.2,11.4-0.3,18.9-0.6c0.4,3,0.6,4.5,0.9,7.7     c-7.8,0.4-11.6,0.6-19.5,0.8c0.4,7.1,0.6,10.9,1,18.9c9.8-0.4,14.7-0.7,24.3-1.6c0.5,3.5,0.7,5.3,1.2,9.1     C590.4,453.9,579.2,454.6,567.9,455z"/>
            <path fill="#F8F8F8" d="M616,451c-3.5-19.5-7-39-10.5-58.5c10.9,0,16.4,0,27.3,0c0.6,2.2,0.9,3.3,1.6,5.6     c-8.2,0.2-12.3,0.3-20.5,0.5c1.4,6.8,2.2,10.3,3.8,18c7.4-0.5,11.1-0.9,18.3-1.6c0.7,2.6,1.1,4,1.8,6.7c-7.3,1-11.1,1.4-18.6,2.1     c1.4,6.5,2.1,9.9,3.6,17.2c9.3-1.4,13.9-2.2,22.7-4.1c0.9,3,1.3,4.5,2.2,7.7C637.1,447.4,626.6,449.3,616,451z"/>
        </g>
    </g>
</g>
</svg>
