<?xml version="1.0" encoding="utf-8"?>
<!-- Generator: Adobe Illustrator 17.1.0, SVG Export Plug-In . SVG Version: 6.00 Build 0)  -->
<!DOCTYPE svg PUBLIC "-//W3C//DTD SVG 1.1//EN" "http://www.w3.org/Graphics/SVG/1.1/DTD/svg11.dtd">
<svg version="1.1" xmlns="http://www.w3.org/2000/svg" xmlns:xlink="http://www.w3.org/1999/xlink" x="0px" y="0px"
     viewBox="0 0 1112 612.6" enable-background="new 0 0 1112 612.6" xml:space="preserve">
<g id="Content">
    <g xmlns="http://www.w3.org/2000/svg">
        <g>
            <path fill="#C16528" d="M500.3,535.8c-2-12-3.9-24.1-5.9-36.1c-0.4-2.2-0.7-4.7-0.7-4.7c-0.1,0-0.1,0-0.2,0c0,0-0.7,2.5-1.5,4.4     c-3.5,8.5-5.1,12.8-8.1,21.4c-0.3,0.1-0.4,0.1-0.6,0.1c-6-6.8-9.1-10.1-15.4-16.6c-1.4-1.5-3.3-3.6-3.3-3.6c-0.1,0-0.1,0-0.2,0     c0,0,0.7,2.6,1.2,4.7c2.8,11.9,5.6,23.8,8.4,35.6c-2.7,0.6-4,1-6.7,1.7c-4.5-17.4-8.9-34.8-13.4-52.3c3.5-0.9,5.2-1.3,8.7-2.1     c6.3,6.3,9.3,9.5,15.2,16c1.3,1.5,3.2,3.8,3.2,3.8c0.1,0,0.1,0,0.2,0c0,0,0.9-2.9,1.6-4.8c2.9-8.2,4.5-12.3,7.9-20.5     c3.6-0.6,5.3-0.9,8.9-1.4c2.6,17.8,5.1,35.6,7.7,53.4C504.4,535.2,503,535.4,500.3,535.8z"/>
            <path fill="#C16528" d="M541.9,477.4c3.3-0.1,5-0.2,8.3-0.3c0.3,12,0.6,24,0.8,36c0.7,9.8-5.4,18.8-15.5,19.4     c-10.1,0.7-17.5-7.4-18.1-17.3c-1.3-11.9-2.6-23.8-3.9-35.7c3.3-0.4,4.9-0.5,8.2-0.8c1.1,11.7,2.1,23.4,3.2,35.2     c0.6,7.1,3.2,12.3,10.1,11.9c7.1-0.5,8.7-6,8.4-13.2C542.9,500.9,542.4,489.2,541.9,477.4z"/>
            <path fill="#C16528" d="M566,517.6c1.8,4.6,5.9,7.6,10.9,7.8c6,0.3,10.1-3.5,9.9-7.5c-0.7-12.4-25-11.3-25.1-27.4     c0-7.9,6.8-14.2,17.1-13.8c9.5,0.4,14.8,5.4,17.1,12c-3,1.2-4.5,1.9-7.5,3.1c-1.3-4.4-4.2-8-10-8.3c-5.4-0.2-9,3.3-8.7,6.8     c1.3,12,26,11,24.5,27.9c-0.8,8.7-7.6,14.3-17.6,13.9c-8.1-0.4-14.2-4.6-17-10.6C562.1,519.9,563.4,519.1,566,517.6z"/>
            <path fill="#C16528" d="M602.3,533.4c2-17.9,4.1-35.7,6.1-53.6c3.3,0.4,4.9,0.6,8.2,1c-2.4,17.8-4.8,35.7-7.1,53.5     C606.6,533.9,605.2,533.7,602.3,533.4z"/>
            <path fill="#C16528" d="M655.3,532.4c-4.3,5.9-10.3,9-18.2,7.4c-14.1-2.8-15.4-19.4-13.6-30.7c2-12.5,10-27,25.1-23.6     c9.4,2.1,14,8.3,15,16.1c-3.1,0.6-4.6,1-7.7,1.7c-0.5-5.7-3.1-9.9-8.7-11.1c-9-1.9-14,6.6-16.1,18.2c-2.1,11.6-0.7,21.1,7.4,22.8     c4.8,1,8.6-1.4,11.4-5.9C652.1,529.3,653.2,530.4,655.3,532.4z"/>
        </g>
    </g>
</g>
</svg>
