<?xml version="1.0" encoding="utf-8"?>
<!-- Generator: Adobe Illustrator 17.1.0, SVG Export Plug-In . SVG Version: 6.00 Build 0)  -->
<!DOCTYPE svg PUBLIC "-//W3C//DTD SVG 1.1//EN" "http://www.w3.org/Graphics/SVG/1.1/DTD/svg11.dtd">
<svg version="1.1" xmlns="http://www.w3.org/2000/svg" xmlns:xlink="http://www.w3.org/1999/xlink" x="0px" y="0px"
     viewBox="0 0 1112 612.6" enable-background="new 0 0 1112 612.6" xml:space="preserve">
<g id="Content">
    <path fill="#464B4D" d="M541.4,470.3v-9c-39.8-0.8-75.5-10.2-75.5-10.2c-7,9.2-11.2,32-11.2,32S482.6,473.3,541.4,470.3z"/>
    <path fill="#464B4D" d="M578.9,470.3v-9c39.8-0.8,75.5-10.2,75.5-10.2c7,9.2,11.2,32,11.2,32S637.6,473.3,578.9,470.3z"/>
    <g xmlns="http://www.w3.org/2000/svg">
        <path fill="#2C2D2C" d="M548.7,472.5v-11.8h-2.8v-1.7h7.4v1.7h-2.8v11.8H548.7z"/>
        <path fill="#2C2D2C" d="M561.7,472.5V467h-4.5v5.4h-1.8v-13.6h1.8v6.4h4.5v-6.4h1.8v13.6H561.7z"/>
        <path fill="#2C2D2C" d="M566.7,472.5v-13.6h6.9v1.7h-5.1v4.7h4.3v1.7h-4.3v3.8h5.1v1.7H566.7z"/>
    </g>
</g>
</svg>
