<?xml version="1.0" encoding="utf-8"?>
<!-- Generator: Adobe Illustrator 17.1.0, SVG Export Plug-In . SVG Version: 6.00 Build 0)  -->
<!DOCTYPE svg PUBLIC "-//W3C//DTD SVG 1.1//EN" "http://www.w3.org/Graphics/SVG/1.1/DTD/svg11.dtd">
<svg version="1.1" xmlns="http://www.w3.org/2000/svg" xmlns:xlink="http://www.w3.org/1999/xlink" x="0px" y="0px"
     viewBox="0 0 1112 612.6" enable-background="new 0 0 1112 612.6" xml:space="preserve">
<g id="Content">
    <g xmlns="http://www.w3.org/2000/svg">
        <g>
            <path fill="#E6BD2E" d="M487.8,573.3c0-9.8,0-19.6,0-29.4c5.8-2,8.7-2.7,14.5-3.8c0,2,0,2.9,0,4.9c-4.3,0.5-6.5,0.9-10.8,1.8     c0,4.9,0,7.4,0,12.3c3.6,0.2,5.5,0.3,9.1,0.7c0,1.9,0,2.9,0,4.8c-3.7-0.6-5.5-0.9-9.1-1.4c0,4.6,0,6.9,0,11.6     C490.1,574.1,489.3,573.9,487.8,573.3z"/>
            <path fill="#E6BD2E" d="M507.4,580.7c0-13.8,0-27.6,0-41.5c5.9-0.9,8.9-1.2,14.8-1.8c0,2.4,0,3.6,0,6.1c-4.4,0.2-6.6,0.3-11,0.7     c0,6,0,9,0,15c3.7,0.4,5.6,0.5,9.4,0.9c0,2.4,0,3.6,0,6c-3.8-0.5-5.6-0.8-9.4-1.4c0,4.8,0,7.2,0,12c4.4,1.3,6.6,1.9,11,2.9     c0,2.4,0,3.6,0,6C516.3,583.9,513.3,582.8,507.4,580.7z"/>
            <path fill="#E6BD2E" d="M529.7,574.7c1,4.4,3.2,7.5,5.9,7.8c3.2,0.3,5.3-3.4,5-7.6c-0.8-10-13.4-13.9-13.2-25.7     c0.1-7.3,3.2-13.3,8.1-13.9c4.5-0.5,7.2,3.6,8.6,9.9c-1.4,1.5-2.1,2.3-3.5,3.8c-0.8-4.2-2.3-7.4-5.1-7.2c-2.6,0.2-4.3,3.4-4.1,7     c0.4,10.6,13.5,13.5,13.2,26c-0.2,8.6-3.5,14.7-8.9,14.1c-4.4-0.5-7.8-5.2-9.3-11C527.7,576.7,528.4,576.1,529.7,574.7z"/>
            <path fill="#E6BD2E" d="M552.4,589.5c0-15.9,0-31.9,0-47.8c-2.5,0.1-3.7,0.1-6.2,0.2c0-2.7,0-4.1,0-6.8c6.5-0.4,9.8-0.5,16.3-0.4     c0,2.7,0,4.1,0,6.9c-2.5,0-3.7,0-6.1,0c0,16,0,32,0,48C554.8,589.5,554,589.5,552.4,589.5z"/>
            <path fill="#E6BD2E" d="M567.2,589.5c0-18.2,0-36.5,0-54.7c1.6,0.1,2.4,0.1,3.9,0.2c0,18.1,0,36.3,0,54.4     C569.6,589.4,568.8,589.4,567.2,589.5z"/>
            <path fill="#E6BD2E" d="M582.8,588.4c-2.7-17.7-5.2-35.5-7.8-53.3c1.6,0.1,2.5,0.2,4.1,0.3c1.7,12.3,3.3,24.5,5.1,36.8     c0.3,2.5,0.7,5.4,0.7,5.4c0,0,0.1,0,0.1,0c0,0,0.3-2.9,0.6-5.5c1.7-11.9,3.3-23.7,5.1-35.6c1.6,0.2,2.5,0.2,4.1,0.4     c-2.7,16.9-5.2,33.9-7.7,50.9C585.3,588.2,584.5,588.3,582.8,588.4z"/>
            <path fill="#E6BD2E" d="M610.5,581.5c-0.6-3.2-0.9-4.9-1.5-8.3c-3.3,0.8-5,1.3-8.3,2c-0.6,4-0.9,6-1.5,10     c-1.6,0.5-2.5,0.7-4.1,1.1c2.5-16.1,4.9-32.3,7.7-48.4c1.7,0.2,2.5,0.3,4.2,0.5c2.4,13.9,4.8,27.8,7.6,41.6     C612.9,580.6,612.1,580.9,610.5,581.5z M605.5,551.7c-0.3-1.7-0.6-4.5-0.6-4.5c0,0-0.1,0-0.1,0c0,0-0.3,2.7-0.6,4.5     c-1.1,6.9-1.6,10.5-2.7,17.8c2.7-0.5,4.1-0.7,6.7-1.3C607.2,561.8,606.6,558.5,605.5,551.7z"/>
            <path fill="#E6BD2E" d="M618.8,578.4c0-12.7,0-25.4,0-38.2c1.5,0.3,2.3,0.5,3.8,0.8c0,10.5,0,20.9,0,31.4c4-1.2,5.9-1.8,9.8-2.8     c0,1.5,0,2.2,0,3.7C627,575.2,624.3,576.3,618.8,578.4z"/>
        </g>
    </g>
</g>
</svg>
